<svg width="10" height="10" viewBox="0 0 10 10" fill="none" xmlns="http://www.w3.org/2000/svg">
<g clip-path="url(#clip0_50_205)">
<path d="M1.66665 4.79158L1.46453 4.84213C1.09356 4.93488 0.833313 5.26817 0.833313 5.65058V6.43258C0.833313 6.815 1.09356 7.14829 1.46453 7.24104L2.18935 7.42225C2.34713 7.46171 2.49998 7.34237 2.49998 7.17971V4.90346C2.49998 4.74079 2.34713 4.62146 2.18935 4.66092L1.66665 4.79158ZM1.66665 4.79158V4.58333C1.66665 2.74238 3.15903 1.25 4.99998 1.25C6.84094 1.25 8.33331 2.74238 8.33331 4.58333V4.79158M8.33331 4.79158L8.53544 4.84213C8.9064 4.93488 9.16665 5.26817 9.16665 5.65058V6.43258C9.16665 6.815 8.9064 7.14829 8.53544 7.24104L8.33331 7.29158M8.33331 4.79158L7.8106 4.66092C7.65281 4.62146 7.49998 4.74079 7.49998 4.90346V7.17971C7.49998 7.34237 7.65281 7.46171 7.8106 7.42225L8.33331 7.29158M8.33331 7.29158V7.5V7.70833C8.33331 8.16858 7.96023 8.54167 7.49998 8.54167H6.24998M6.24998 8.54167C6.24998 8.1965 5.97015 7.91667 5.62498 7.91667H4.37498C4.0298 7.91667 3.74998 8.1965 3.74998 8.54167C3.74998 8.88683 4.0298 9.16667 4.37498 9.16667H5.62498C5.97015 9.16667 6.24998 8.88683 6.24998 8.54167Z" stroke="black"/>
</g>
<defs>
<clipPath id="clip0_50_205">
<rect width="10" height="10" fill="white"/>
</clipPath>
</defs>
</svg>
