<svg width="30" height="30" viewBox="0 0 30 30" fill="none" xmlns="http://www.w3.org/2000/svg">
<path d="M5 14.3747L4.39366 14.5264C3.28074 14.8046 2.5 15.8045 2.5 16.9518V19.2977C2.5 20.445 3.28074 21.4449 4.39366 21.7231L6.5681 22.2668C7.04146 22.3851 7.5 22.0271 7.5 21.5391V14.7104C7.5 14.2224 7.04146 13.8644 6.5681 13.9828L5 14.3747ZM5 14.3747V13.75C5 8.22715 9.47715 3.75 15 3.75C20.5229 3.75 25 8.22715 25 13.75V14.3747M25 14.3747L25.6064 14.5264C26.7192 14.8046 27.5 15.8045 27.5 16.9518V19.2977C27.5 20.445 26.7192 21.4449 25.6064 21.7231L25 21.8747M25 14.3747L23.4319 13.9828C22.9585 13.8644 22.5 14.2224 22.5 14.7104V21.5391C22.5 22.0271 22.9585 22.3851 23.4319 22.2668L25 21.8747M25 21.8747V22.5V23.125C25 24.5057 23.8807 25.625 22.5 25.625H18.75M18.75 25.625C18.75 24.5895 17.9105 23.75 16.875 23.75H13.125C12.0895 23.75 11.25 24.5895 11.25 25.625C11.25 26.6605 12.0895 27.5 13.125 27.5H16.875C17.9105 27.5 18.75 26.6605 18.75 25.625Z" stroke="white" stroke-width="2"/>
</svg>
