<svg width="12" height="12" viewBox="0 0 12 12" fill="none" xmlns="http://www.w3.org/2000/svg">
<g clip-path="url(#clip0_50_43)">
<path d="M4.00001 7.25C2.50001 5 4.73122 3.25 6.25001 3.25C7.76881 3.25 9.00001 4.07684 9.00001 6C9.00001 7.5188 8.00001 8.5 7.00001 8.5C6.00001 8.5 5.50001 7.5 5.75001 6" stroke="black" stroke-linecap="round" stroke-linejoin="round"/>
<path d="M6 5L4.5 10.75" stroke="black" stroke-linecap="round" stroke-linejoin="round"/>
<path d="M6 11C8.7614 11 11 8.7614 11 6C11 3.23857 8.7614 1 6 1C3.23857 1 1 3.23857 1 6C1 8.7614 3.23857 11 6 11Z" stroke="black" stroke-linecap="round" stroke-linejoin="round"/>
</g>
<defs>
<clipPath id="clip0_50_43">
<rect width="12" height="12" fill="white"/>
</clipPath>
</defs>
</svg>
