<svg width="30" height="30" viewBox="0 0 30 30" fill="none" xmlns="http://www.w3.org/2000/svg">
<path d="M27.2729 11.7052L25.1554 4.29396C25.0634 3.97199 24.7691 3.75 24.4342 3.75H19.375L19.9691 10.8797C19.9886 11.113 20.1154 11.3238 20.3165 11.4437C20.8031 11.7337 21.7565 12.2712 22.5 12.5C23.7697 12.8906 25.626 12.7498 26.6831 12.6198C27.1228 12.5658 27.3946 12.1311 27.2729 11.7052Z" stroke="white" stroke-width="2"/>
<path d="M17.5 12.5C18.2094 12.2817 19.1099 11.7824 19.6137 11.4851C19.8535 11.3436 19.9855 11.0763 19.9624 10.7988L19.375 3.75H10.625L10.0376 10.7988C10.0145 11.0763 10.1466 11.3436 10.3864 11.4851C10.8901 11.7824 11.7907 12.2817 12.5 12.5C14.3663 13.0742 15.6338 13.0742 17.5 12.5Z" stroke="white" stroke-width="2"/>
<path d="M4.84463 4.29396L2.72711 11.7052C2.60543 12.1311 2.87729 12.5658 3.31691 12.6198C4.37399 12.7498 6.23034 12.8906 7.50004 12.5C8.2435 12.2712 9.19693 11.7337 9.68351 11.4437C9.88463 11.3238 10.0115 11.113 10.0309 10.8797L10.625 3.75H5.56576C5.2309 3.75 4.93661 3.97199 4.84463 4.29396Z" stroke="white" stroke-width="2"/>
<path d="M3.75 12.5V23.75C3.75 25.1307 4.86929 26.25 6.25 26.25H23.75C25.1307 26.25 26.25 25.1307 26.25 23.75V12.5" stroke="white" stroke-width="2"/>
</svg>
